<svg xmlns="http://www.w3.org/2000/svg"  viewBox="0 0 16 16" width="16px" height="16px"><path fill="#8bb7f0" d="M7.5 0A7.5 7.5 0 1 0 7.5 15A7.5 7.5 0 1 0 7.5 0Z"/><path fill="#fff" d="M14.957 8.292c.001-.011.003-.021.004-.031C14.961 8.271 14.958 8.282 14.957 8.292zM.038 8.258C.04 8.272.042 8.286.044 8.301.042 8.286.04 8.272.038 8.258zM8.569 9.488h1.941l.305-1.972H8.569V6.439c0-.819.268-1.545 1.034-1.545h1.231V3.172c-.216-.029-.674-.093-1.538-.093-1.805 0-2.863.953-2.863 3.125v1.312H4.577v1.972h1.856v5.314c.367.055.739.093 1.121.093.345 0 .682-.031 1.015-.077V9.488z"/><g><path fill="#4e7ab5" d="M7.5,1C11.084,1,14,3.916,14,7.5S11.084,14,7.5,14S1,11.084,1,7.5S3.916,1,7.5,1 M7.5,0 C3.358,0,0,3.358,0,7.5S3.358,15,7.5,15S15,11.642,15,7.5S11.642,0,7.5,0L7.5,0z"/></g></svg>